<svg width="24" height="24" viewBox="0 0 24 24" fill="none" xmlns="http://www.w3.org/2000/svg">
<rect width="24" height="24" fill="#292C31"/>
<path d="M21 11V10.7359C21 5.91121 17.0888 2 12.2641 2V2C7.62762 2 3.79878 5.62203 3.54159 10.2513L3.5 11" stroke="white" stroke-width="1.15385"/>
<path d="M3.57692 10.5769H5.30769C6.26357 10.5769 7.03846 11.3518 7.03846 12.3077V15.7692C7.03846 16.7251 6.26357 17.5 5.30769 17.5H3.57692V10.5769Z" stroke="white" stroke-width="1.15385"/>
<path d="M17.5769 12.3077C17.5769 11.3518 18.3518 10.5769 19.3077 10.5769H21.0385V17.5H19.3077C18.3518 17.5 17.5769 16.7251 17.5769 15.7692V12.3077Z" stroke="white" stroke-width="1.15385"/>
<path d="M21 17.5C21 22 19.3 22 12.5 22" stroke="white"/>
<rect x="10" y="21" width="3" height="2" rx="1" fill="white"/>
</svg>
